<?xml version="1.0" standalone="no"?>
<!DOCTYPE svg PUBLIC "-//W3C//DTD SVG 20010904//EN"
        "http://www.w3.org/TR/2001/REC-SVG-20010904/DTD/svg10.dtd">
<svg version="1.0" xmlns="http://www.w3.org/2000/svg"
     width="512.000000pt" height="512.000000pt" viewBox="0 0 512.000000 512.000000"
     preserveAspectRatio="xMidYMid meet">

    <g transform="translate(0.000000,512.000000) scale(0.100000,-0.100000)"
       stroke="none">
        <path d="M363 4900 c-170 -25 -321 -170 -353 -339 -7 -35 -10 -778 -10 -2160
0 -2073 0 -2106 20 -2138 22 -37 69 -54 115 -41 21 5 191 169 555 533 l525
525 1545 0 c1297 0 1555 3 1605 14 143 34 256 139 306 284 18 52 19 93 19 720
l0 664 -31 29 c-36 34 -90 39 -129 13 -14 -9 -182 -173 -375 -365 -264 -262
-361 -353 -395 -368 -25 -11 -184 -47 -353 -81 -278 -55 -314 -60 -362 -51
-109 20 -197 89 -242 188 -36 78 -32 145 22 412 25 124 45 231 45 238 0 11
-158 13 -869 13 l-869 0 -31 31 c-42 42 -43 95 -2 141 l29 33 919 3 918 2 208
208 c114 114 207 210 207 214 0 5 -506 8 -1124 8 l-1124 0 -31 31 c-42 42 -43
95 -2 141 l29 33 1207 3 c870 2 1212 -1 1227 -9 19 -10 55 24 407 373 363 361
391 386 465 424 91 45 120 79 112 133 -3 19 -16 45 -28 59 -31 34 -114 69
-190 82 -74 12 -3883 12 -3965 0z m2137 -2355 c66 -34 76 -121 19 -169 l-31
-26 -678 0 -678 0 -31 31 c-24 23 -31 39 -31 68 0 42 29 87 64 101 11 5 317 9
679 9 569 1 662 -1 687 -14z"/>
        <path d="M4613 4465 c-29 -8 -72 -24 -95 -36 -51 -25 -1401 -1368 -1417 -1408
-16 -42 -111 -533 -111 -574 0 -52 46 -97 99 -97 40 0 531 95 572 111 14 5
332 317 707 692 741 742 718 716 744 856 37 200 -103 408 -307 457 -74 17
-125 17 -192 -1z m-53 -550 l135 -135 -78 -77 -77 -78 -137 137 -138 138 75
75 c41 41 77 75 80 75 3 0 66 -61 140 -135z"/>
    </g>
</svg>