<svg width="1024" height="1024" viewBox="0 0 1024 1024" fill="none" xmlns="http://www.w3.org/2000/svg">
<g clip-path="url(#clip0_12_119)">
<path fill-rule="evenodd" clip-rule="evenodd" d="M0 512V512C0 794.77 229.23 1024 512 1024V1024V1024C794.77 1024 1024 794.77 1024 512V512V512C1024 229.23 794.77 0 512 0V0V0C229.23 0 0 229.23 0 512V512Z" fill="#FFE03F"/>
<path fill-rule="evenodd" clip-rule="evenodd" d="M607.676 250.431C605.859 251.416 595.153 261.247 583.886 272.276C526.554 328.398 440.76 374.843 377.38 384.068C366.137 385.704 350.036 386.089 292.804 386.089C250.53 386.089 219.254 386.617 214.996 387.404C198.661 390.422 180.38 402.369 171.618 415.754C162.611 429.512 162.272 431.818 162.057 480.99C161.871 523.264 161.996 525.758 164.727 533.968C172.806 558.262 196.082 576.781 220.264 578.154L227.365 578.557L244.831 629.036C289.706 758.736 290.992 762.258 295.092 766.835C302.813 775.454 305.558 775.967 344.141 775.999C366.894 776.019 380.166 775.518 383.129 774.526C396.179 770.167 405.183 758.795 406.374 745.168C406.98 738.252 405.702 734.126 385.047 676.276C372.962 642.432 362.217 611.498 361.169 607.534C359.439 600.996 357.939 575.698 359.298 576.005C359.612 576.075 362.84 576.55 366.475 577.059C378.211 578.704 409.643 587.019 426.61 592.966C447.287 600.213 483.428 617.477 502.874 629.394C533.595 648.221 565.137 673.277 589.545 698.245C597.302 706.18 605.298 713.515 607.314 714.546C612.58 717.238 622.692 716.91 628.818 713.848C632.075 712.219 635.288 709.096 637.48 705.43L640.965 699.6L641.103 634.759L641.24 569.918L650.053 565.379C682.437 548.698 701.982 516.703 701.801 480.659C701.62 444.419 684.749 417.994 650.879 400.897L641.378 396.101L641.375 330.532C641.371 257.296 641.749 260.409 631.969 253.096C628.2 250.278 625.463 249.425 619.082 249.079C613.88 248.796 609.797 249.28 607.676 250.431ZM747.667 260.782C740.755 265.347 737.197 271.444 737.197 278.722C737.197 284.543 737.768 285.613 745.458 294.215C750.001 299.297 756.57 306.744 760.057 310.766C783.504 337.809 804.938 379.676 814.536 417.18C824.384 455.66 824.356 507.072 814.469 545.534C803.318 588.905 783.688 625.343 753.549 658.611C738.378 675.356 737.197 677.2 737.197 684.145C737.197 694.759 745.496 703.398 756.705 704.454C765.413 705.274 769.385 703.06 780.027 691.451C819.819 648.044 848.471 590.839 859.004 533.773C863.009 512.073 863.958 461.627 860.798 438.403C855.596 400.172 840.44 357.595 820.503 325.201C804.248 298.79 775.885 264.65 766.057 259.669C760.613 256.91 752.815 257.381 747.667 260.782ZM697.95 319.962C690.259 324.56 686.262 333.573 688.458 341.37C689.165 343.877 693.677 350.446 698.485 355.969C720.418 381.157 733.885 408.206 741.442 442.25C743.92 453.417 744.361 459.396 744.361 481.954C744.361 504.481 743.919 510.497 741.454 521.601C733.635 556.81 720.048 583.645 697.647 608.113C688.587 618.011 688.296 618.537 688.296 625.086C688.296 639.576 703.238 650.387 716.065 645.178C726.255 641.042 751.256 608.23 763.443 583.002C798.892 509.614 792.291 418.823 746.635 351.815C737.892 338.986 725.076 324.176 719.273 320.201C713.968 316.565 703.823 316.453 697.95 319.962Z" fill="black"/>
</g>
<defs>
<clipPath id="clip0_12_119">
<rect width="1024" height="1024" fill="white"/>
</clipPath>
</defs>
</svg>
